<svg id="Layer_1" data-name="Layer 1" xmlns="http://www.w3.org/2000/svg" viewBox="0 0 800 800"><defs><style>.cls-1{fill:#fe0505;}.cls-2{fill:#373737;}.cls-3,.cls-5{fill:#363636;}.cls-4{fill:#c6c6c6;}.cls-5{font-size:100px;font-family:Aileron-Regular, Aileron;}</style></defs><title>logo</title><path class="cls-1" d="M373.07,341.09a16.73,16.73,0,0,1,2.76-23.65A17.11,17.11,0,0,1,400,320.17a17.47,17.47,0,0,1-2.8,23.86A17.07,17.07,0,0,1,373.07,341.09Z"/><path class="cls-2" d="M271.41,588.79a16.76,16.76,0,0,1,23.71,2.29,17.17,17.17,0,0,1-2.25,24.28,17.48,17.48,0,0,1-24.32-2.83A17.06,17.06,0,0,1,271.41,588.79Z"/><path class="cls-2" d="M190.35,137.29a16.68,16.68,0,0,1-3.11,23.59,17.1,17.1,0,0,1-24.17-3A17.51,17.51,0,0,1,166.2,134,17.1,17.1,0,0,1,190.35,137.29Z"/><path class="cls-2" d="M305.6,486.87a17.19,17.19,0,0,1,2.7-24.23,17.45,17.45,0,0,1,23.86,2.79,17,17,0,0,1-2.92,24.16A16.69,16.69,0,0,1,305.6,486.87Z"/><path class="cls-2" d="M500.4,150a16.7,16.7,0,0,1-3,23.61,17.19,17.19,0,0,1-24.21-3,17.48,17.48,0,0,1,3.05-23.84A17,17,0,0,1,500.4,150Z"/><path class="cls-2" d="M311,34.83A17.4,17.4,0,0,1,335.26,38a17.08,17.08,0,0,1-3.2,23.7A16.79,16.79,0,0,1,308,58.55,17.08,17.08,0,0,1,311,34.83Z"/><path class="cls-2" d="M271.63,355.69a17.16,17.16,0,0,1,23.76,2.81,17.51,17.51,0,0,1-3,24.31,17,17,0,0,1-24.1-3.56A16.72,16.72,0,0,1,271.63,355.69Z"/><path class="cls-2" d="M211.71,425.22a16.75,16.75,0,0,1-2.83,23.63,17.1,17.1,0,0,1-24.21-2.78,17.52,17.52,0,0,1,2.87-23.87A17.11,17.11,0,0,1,211.71,425.22Z"/><path class="cls-2" d="M103.31,189.36a17.08,17.08,0,0,1,23.76,2.58,16.78,16.78,0,0,1-2.49,24.13,17.09,17.09,0,0,1-23.81-2.36C94.79,206.58,96,195.23,103.31,189.36Z"/><path class="cls-2" d="M550.83,284.45A17.08,17.08,0,1,1,578,263.77a17.08,17.08,0,0,1-27.18,20.68Z"/><path class="cls-2" d="M235.3,553.91a17,17,0,0,1-2.49,23.74,17.07,17.07,0,1,1-21.15-26.79A16.87,16.87,0,0,1,235.3,553.91Z"/><path class="cls-2" d="M270,110.13A17.08,17.08,0,0,1,249.31,83,17.08,17.08,0,1,1,270,110.13Z"/><path class="cls-3" d="M413.74,35.59a17.11,17.11,0,0,1-2.35,23.79,16.82,16.82,0,0,1-24.16-2.27,17.09,17.09,0,0,1,2.66-24.22A17.39,17.39,0,0,1,413.74,35.59Z"/><path class="cls-2" d="M704.46,289.48a17.09,17.09,0,0,1-2.79,23.75,17.52,17.52,0,0,1-24.31-3,17.1,17.1,0,0,1,3.54-24.11A16.74,16.74,0,0,1,704.46,289.48Z"/><path class="cls-2" d="M617.22,141.34A16.92,16.92,0,0,1,614.34,165a17.08,17.08,0,1,1,2.88-23.69Z"/><path class="cls-3" d="M111.88,272.57a17.07,17.07,0,1,1-26.49,21.54,17.07,17.07,0,0,1,26.49-21.54Z"/><path class="cls-2" d="M597.55,485.08a16.72,16.72,0,0,1-23.66-2.53,17.09,17.09,0,0,1,2.47-24.23,17.48,17.48,0,0,1,24.29,3A17.07,17.07,0,0,1,597.55,485.08Z"/><path class="cls-2" d="M445.29,489a16.91,16.91,0,0,1,3.31-24.08,17.14,17.14,0,0,1,23.71,3.18A17.34,17.34,0,0,1,469,492.3,17.15,17.15,0,0,1,445.29,489Z"/><path class="cls-3" d="M240.61,253.37a17.07,17.07,0,0,1-26.9,21,17.07,17.07,0,1,1,26.9-21Z"/><path class="cls-3" d="M512.79,578.43a16.88,16.88,0,0,1,23.7,2.73,17.07,17.07,0,1,1-26.95,20.93A17,17,0,0,1,512.79,578.43Z"/><path class="cls-2" d="M517.22,393.37a17.07,17.07,0,1,1,23.65,3.27A17.12,17.12,0,0,1,517.22,393.37Z"/><path class="cls-3" d="M435.16,250.33a16.91,16.91,0,0,1,23.69,2.77,17.08,17.08,0,1,1-27,20.86A17,17,0,0,1,435.16,250.33Z"/><path class="cls-3" d="M346.83,584.54a16.87,16.87,0,0,1,23.66,3,17.07,17.07,0,1,1-26.8,21.15A17,17,0,0,1,346.83,584.54Z"/><path class="cls-2" d="M143.41,340.38a16.82,16.82,0,0,1-2.63,23.68,17,17,0,0,1-24.21-2.58,17.39,17.39,0,0,1,3.11-24.26A17.13,17.13,0,0,1,143.41,340.38Z"/><path class="cls-2" d="M463.53,597.51a16.84,16.84,0,0,1-2.46,23.71,17.13,17.13,0,0,1-24.24-2.44,17.35,17.35,0,0,1,3-24.26A17,17,0,0,1,463.53,597.51Z"/><path class="cls-2" d="M563.87,527.17a16.89,16.89,0,0,1,23.65,3.08,17.07,17.07,0,1,1-23.65-3.08Z"/><path class="cls-2" d="M179.68,491a17.47,17.47,0,0,1,24.28,3.2,17.1,17.1,0,0,1-3.26,23.71,16.75,16.75,0,0,1-24-3.2A17.07,17.07,0,0,1,179.68,491Z"/><path class="cls-2" d="M662.58,194a17.08,17.08,0,0,1,20.76,27.13A17.08,17.08,0,1,1,662.58,194Z"/><path class="cls-3" d="M351.35,157.24a17.07,17.07,0,0,1,21.29,26.69,17.07,17.07,0,1,1-21.29-26.69Z"/><path class="cls-3" d="M663.57,360.88a17.27,17.27,0,0,1-3.1,24.21,17.07,17.07,0,0,1-20.66-27.18A17.19,17.19,0,0,1,663.57,360.88Z"/><path class="cls-2" d="M475.7,75.65a17.07,17.07,0,1,1-23.8-2.88A17.25,17.25,0,0,1,475.7,75.65Z"/><path class="cls-4" d="M542,280.11c.68,2.89-1.25,3.81-3.33,4.48q-12.28,4-24.59,7.86L416.85,323.3c-1.2.38-2.37.88-3.59,1.18-1.78.43-4.08,1.46-4.87-1.05-.92-3,2-2.59,3.58-3.09q62.38-19.9,124.81-39.66C538.38,280.17,540.09,278.53,542,280.11Z"/><path class="cls-4" d="M364,319c1.23,1.18,1.49,2.23.92,3.21-1.37,2.38-3,.51-4.31,0-14.75-6.1-29.46-12.3-44.18-18.46q-32.26-13.5-64.51-27c-1.61-.68-4.92-.64-3.29-3.95,1.37-2.77,3.32-.63,4.82,0q53.53,22.23,107,44.6C361.83,317.89,363.13,318.58,364,319Z"/><path class="cls-4" d="M446.5,458.35c-5-10.07-9.31-18.67-13.52-27.33q-18-37-35.9-74c-.84-1.74-3.26-3.71-.41-5.32,3.19-1.8,3.14,1.62,3.93,3.23q23.86,48.43,47.64,96.92c.47.94.83,1.93,1.32,2.85.68,1.28.78,2.46-.66,3.19A5.35,5.35,0,0,1,446.5,458.35Z"/><path class="cls-4" d="M364.64,193.85c3.81-1,3.44,2.11,3.76,4.11,1.91,11.82,3.7,23.66,5.5,35.49Q379,266.78,384,300.1a4.36,4.36,0,0,1,.21,1.24c-.43,2.19,2.39,5.79-1.16,6.37S380.32,304.1,380,302c-5.43-34.65-10.69-69.32-16-104C363.78,196.58,363.22,195.1,364.64,193.85Z"/><path class="cls-4" d="M327.42,454.33a8.62,8.62,0,0,1,.17-2.13,20.4,20.4,0,0,1,1.26-2.89q21.86-46.81,43.79-93.61c.78-1.66.73-5.63,4.08-3.86,2.89,1.53.49,4.13-.4,6.05q-21.39,46-42.89,91.95a26,26,0,0,1-2.45,4.38C330.16,455.33,328.92,455.62,327.42,454.33Z"/><path class="cls-4" d="M298,492.69c1.48-2.07,2.54-2.38,3.66-1.12,1.27,1.43.67,2.61-.58,3.76-3.23,3-6.37,6.09-9.62,9.06Q267.75,526.05,244,547.66c-1.33,1.21-2.75,3.25-4.73,1.21s0-3.32,1.39-4.58c14-12.63,28.29-25,42-38C287.87,501.35,293.46,496.9,298,492.69Z"/><path class="cls-4" d="M631.62,346.73a10,10,0,0,1,1,1.26c.69,2.08,5.15,3.59,2,6-2.31,1.77-4.35-1.31-6-3.16-12.46-14.43-24.81-28.95-37.4-43.26-3.59-4.08-7.72-7.69-10.9-12.14-.72-1-1.81-2-.73-3.31,1.42-1.66,2.65-.37,3.73.56a38.27,38.27,0,0,1,4.09,3.86q18.7,21.63,37.33,43.32C627.1,342.57,630.51,344.2,631.62,346.73Z"/><path class="cls-4" d="M552.76,527c1.09,1.13,1.67,2.35.5,3.41-1.4,1.28-2.79.1-4-.56q-14.7-7.85-29.36-15.78c-12.72-6.88-25.45-13.75-38.1-20.76-1.21-.67-3.89-1.14-2.86-3.36,1.09-2.37,3.21-1.2,4.89-.3l67.53,36.41C551.88,526.4,552.38,526.79,552.76,527Z"/><path class="cls-4" d="M472.75,498.85c8.3,14.46,15.82,27.52,23.29,40.6,5.09,8.91,10.09,17.86,15.16,26.77,1,1.77,3.07,3.69.14,5.21-2.51,1.31-3-1.24-3.91-2.81q-18.49-32.46-37-64.9c-1-1.84-2.65-3.75-.08-5.4A1.57,1.57,0,0,1,472.75,498.85Z"/><path class="cls-4" d="M367.15,148c.41-1.94.64-3.58,1.12-5.14q11.12-36.08,22.27-72.15c.46-1.48.78-3,2.83-2.43,2.45.71,1.66,2.63,1.21,4.15q-3.6,12.06-7.36,24.07-7.44,24-15,48.07c-.47,1.52-.6,3.49-2.61,3.95C369,148.72,368.16,148.27,367.15,148Z"/><path class="cls-4" d="M309.83,498.83a2.21,2.21,0,0,1,3.08-.43c1.59,1.1.82,2.69.45,4q-3.19,11.54-6.53,23-6.93,23.92-13.93,47.81c-.3,1-.71,2-1,3-.49,1.64-.95,3.69-3.12,3.19-3-.69-1.37-3.18-1-4.63,3.69-13.15,7.54-26.25,11.39-39.35,3.26-11.09,6.57-22.17,9.83-33.25C309.38,501,309.6,499.79,309.83,498.83Z"/><path class="cls-4" d="M433.08,107.77c2.65-2.08,5.28-4.18,8-6.22,1-.78,2.22-1.42,3.25,0,.78,1.06.2,1.95-.59,2.74-2.07,2.08-4,4.36-6.22,6.22q-24.8,20.48-49.7,40.82c-1,.8-1.9,1.65-2.91,2.42-1.53,1.16-2.35,5.17-5.11,2-2.13-2.47.93-3.59,2.36-4.8q25.49-21.56,51.06-43Z"/><path class="cls-4" d="M215.29,496.86c.59-.18,2-.69,3.38-1q35.4-7.78,70.81-15.54c1-.23,2-.5,3.09-.63,1.43-.18,3.1-.63,3.51,1.48s-1,2.45-2.59,2.79c-6.35,1.43-12.68,3-19,4.34q-28,6.1-56.08,12.12c-1.54.33-3.37,1.3-4.64-.49C213,498.93,213.51,497.93,215.29,496.86Z"/><path class="cls-4" d="M456.06,501.39a5.88,5.88,0,0,1,2.16.25c1.47.7,1,2.13.9,3.34-.51,9-1,18-1.57,27.06q-1.46,23.26-3,46.54a30.11,30.11,0,0,1-.33,3.14c-.22,1.41-.13,3.22-2.21,3.2-2.59,0-2.2-2-2.09-3.67q1.35-22,2.72-44c.64-10.27,1.28-20.54,2-30.81C454.76,504.79,454.51,503,456.06,501.39Z"/><path class="cls-4" d="M204,266.42a5.42,5.42,0,0,1,0,2.13c-.65,1.71-2.42,1.48-3.78,1.69-10.79,1.69-21.58,3.29-32.37,4.9q-20.24,3-40.48,6c-2.18.32-5.3,1.56-5.65-1.77-.3-2.94,3.07-2.19,4.87-2.47q36.09-5.52,72.22-10.81C200.42,265.84,202.08,265,204,266.42Z"/><path class="cls-4" d="M327.78,70.52c2.84-.79,3.74,1.15,4.45,3.22,2.7,8,5.4,15.92,8,23.9q7.51,22.74,14.92,45.52c.56,1.74,2.79,4.23-.26,5.31s-3.09-2.07-3.72-3.93q-11.65-35-23.21-70C327.58,73.31,326.22,71.94,327.78,70.52Z"/><path class="cls-4" d="M200.54,285.05c1.74-1.52,3.55-3,5.21-4.57,1.19-1.15,2.14-3.08,3.89-.88,1.53,1.93-.11,3.08-1.41,4.11-3,2.36-5.47,5.21-8.24,7.73-15.34,14-30.93,27.68-46.44,41.47a19.65,19.65,0,0,1-2,1.57c-1.15.8-2.32,2.34-3.8.91s.06-2.51.91-3.66c4.79-6.52,11.82-10.63,17.52-16.21,10.92-10.69,22.81-20.39,34.31-30.5Z"/><path class="cls-4" d="M669.38,293.3c-.5,1-.87,1.72-1.29,2.45-.83,1.44-2.18,1-3.38.8-5.38-.95-10.77-1.9-16.13-3Q620.75,288,593,282.28a20.17,20.17,0,0,1-3-.88c-1.38-.5-3.09-1-2.58-2.94s2.22-1.28,3.64-1c14.85,3,29.72,5.84,44.57,8.81,9.48,1.89,19,3.86,28.42,5.81C665.37,292.37,666.77,292.71,669.38,293.3Z"/><path class="cls-4" d="M563.2,471.13c1.16,2.44.54,3.72-1.65,4-3.55.4-7.11.73-10.68.91-21.2,1.09-42.4,2.19-63.61,3.09-1.81.08-5.33,2-5.4-1.77-.06-3.49,3.31-2.25,5.43-2.37q34-1.87,68-3.7C558,471.12,560.67,471.17,563.2,471.13Z"/><path class="cls-4" d="M206.17,250.5a2.44,2.44,0,0,1,.34,3.1c-1.12,1.63-2.14.31-3.17-.24-12.59-6.73-25.21-13.43-37.78-20.2q-14.42-7.77-28.73-15.72c-1.35-.75-3.72-1.34-2.66-3.51,1.18-2.43,3.08-1.11,4.8-.18q31.58,17.08,63.18,34.14C203.61,248.68,205,249.71,206.17,250.5Z"/><path class="cls-4" d="M296.07,466.39a2.16,2.16,0,0,1,.41,3c-.92,1.35-2.23.81-3.41.42-8.39-2.76-16.77-5.5-25.13-8.32q-21.81-7.37-43.57-14.83c-2-.7-5.34-.76-4-4.18,1.06-2.7,3.41-.57,4.88-.09,22.55,7.44,45,15,67.54,22.61C294,465.4,295.11,466,296.07,466.39Z"/><path class="cls-4" d="M570.47,251.45c-1.08-2,.19-3.7.72-5.38,5.42-17,11-34,16.43-50.94,1.93-6,3.65-12.06,5.62-18,.55-1.66,1.11-4.18,3.78-2.93,2.17,1,.84,2.88.35,4.4q-11.21,35.1-22.41,70.19C574.23,251.07,573.27,252.66,570.47,251.45Z"/><path class="cls-4" d="M649.18,224.54q-30.15,18.68-60.3,37.37c-1.53.95-3.06,1.82-4.31-.16s.42-3.1,1.82-3.95q24.69-15,49.41-29.86c4.3-2.6,8.52-5.33,12.86-7.86,1.33-.77,2.79-3.6,4.5-.62,1.37,2.37-.5,3.31-2.41,4a9.28,9.28,0,0,0-1.6,1Z"/><path class="cls-4" d="M325.38,498.88c2.71-1.65,3.08.46,3.66,2.31q9.18,29.45,18.39,58.9c1.25,4,2.53,8,3.64,12.06.33,1.2,1.94,3-.31,3.72s-3.36-1.16-4-3c-2.13-6.6-4.19-13.21-6.26-19.82-5-16-10.07-32-15-48.09C324.94,503,323.81,501,325.38,498.88Z"/><path class="cls-4" d="M185.12,168.89c2.71-1.5,3.44.28,4.38,2.46,6.34,14.82,12.8,29.6,19.22,44.38,3.09,7.11,6.23,14.19,9.24,21.33.68,1.62,2.18,3.85,0,5-2.51,1.36-3-1.29-3.73-2.92Q199.82,206,185.47,172.9C184.92,171.63,183.61,170.44,185.12,168.89Z"/><path class="cls-4" d="M342.3,153.65c.92,1.07,1.64,1.93,1,3-.85,1.41-2.11,1.24-3.25.47-2.43-1.65-4.8-3.39-7.18-5.1q-25.56-18.41-51.1-36.83c-1.66-1.2-5.26-2.09-3.14-4.9s4,.28,5.72,1.55L340,152.1C340.8,152.71,341.7,153.25,342.3,153.65Z"/><path class="cls-4" d="M386.17,166.77c1.57-.26,2.8-.57,4-.68q34.49-3,69-5.86c1.7-.14,4.22-.9,4.56,1.87.39,3.1-2.29,2.32-4,2.46q-34.8,2.92-69.6,5.71c-1.67.13-4,1.23-4.79-1.46C385.19,168.24,385.9,167.41,386.17,166.77Z"/><path class="cls-4" d="M475.83,459.41c-.93,1.08-2.2,1.65-3.3.69-2.18-1.92,0-3.43,1-4.75,7.87-10.57,15.84-21.06,23.78-31.58q7.94-10.53,15.82-21.08c.88-1.18,1.57-2.79,3.39-1.59s1.41,2.6.19,4.22q-20.28,26.76-40.43,53.6C476.1,459.09,476,459.25,475.83,459.41Z"/><path class="cls-4" d="M541.2,270.17a8.54,8.54,0,0,1,0,2.51c-.5,1.61-1.92,1.3-3.16,1.22-4.4-.26-8.81-.45-13.2-.82q-26.06-2.22-52.1-4.57c-1.66-.15-4.3.42-4.1-2.59.17-2.58,2.32-1.91,3.9-1.79q32.34,2.64,64.68,5.34C538.48,269.57,539.69,269.9,541.2,270.17Z"/><path class="cls-4" d="M240.47,284.81c10.05,19.32,19.54,37.25,28.61,55.38,1.17,2.33,6,5.69,2.05,7.82-4.42,2.39-4.48-3.88-5.71-6.09-9.19-16.65-17.8-33.62-26.57-50.5-.58-1.11-1-2.31-1.57-3.43-.81-1.62-.47-2.86,1.19-3.6S240.57,285.05,240.47,284.81Z"/><text class="cls-5" transform="translate(145.85 736.76)">Wiki Graph</text></svg>