<svg id="Layer_1" data-name="Layer 1" xmlns="http://www.w3.org/2000/svg" viewBox="0 0 800 800"><defs><style>.cls-1{fill:#fe0505;}.cls-2{fill:#373737;}.cls-3{fill:#363636;}.cls-4{fill:#c6c6c6;}</style></defs><title>logo</title><path class="cls-1" d="M403.62,366.53A18.47,18.47,0,0,1,422.3,385a18.9,18.9,0,0,1-18.85,19.19,19.3,19.3,0,0,1-18.84-18.67A18.85,18.85,0,0,1,403.62,366.53Z"/><path class="cls-2" d="M257.48,109.63a18.5,18.5,0,0,1-18.12,19.05,19,19,0,0,1-19.58-18.48c-.19-10.27,8.68-19.23,19-19.21A18.82,18.82,0,0,1,257.48,109.63Z"/><path class="cls-2" d="M705.09,346.38a18.4,18.4,0,0,1-18.39-18.76,18.88,18.88,0,0,1,19.1-18.93,19.34,19.34,0,0,1,18.59,18.94A18.89,18.89,0,0,1,705.09,346.38Z"/><path class="cls-2" d="M322.8,208.69A19,19,0,0,1,342,227.53a19.28,19.28,0,0,1-18.67,18.84,18.76,18.76,0,0,1-19-19A18.43,18.43,0,0,1,322.8,208.69Z"/><path class="cls-2" d="M483.12,607.26a18.44,18.44,0,0,1-18.5-18.66,19,19,0,0,1,19.05-19,19.31,19.31,0,0,1,18.65,18.88A18.79,18.79,0,0,1,483.12,607.26Z"/><path class="cls-2" d="M712.05,521a19.21,19.21,0,0,1-19.27,18.92A18.85,18.85,0,0,1,674.36,521a18.55,18.55,0,0,1,19.12-18.77A18.86,18.86,0,0,1,712.05,521Z"/><path class="cls-2" d="M460,268.42a18.94,18.94,0,0,1-18.62,18.74A19.32,19.32,0,0,1,422.26,268a18.8,18.8,0,0,1,19.49-18.53A18.45,18.45,0,0,1,460,268.42Z"/><path class="cls-2" d="M440.28,169a18.48,18.48,0,0,1-18.61-18.54,18.87,18.87,0,0,1,18.88-19.16,19.34,19.34,0,0,1,18.8,18.74A18.9,18.9,0,0,1,440.28,169Z"/><path class="cls-2" d="M719.05,235.29a18.85,18.85,0,0,1-18.41,18.9,18.53,18.53,0,0,1-19.28-18.58,18.87,18.87,0,0,1,18.26-19.09C709.88,216.17,718.93,224.92,719.05,235.29Z"/><path class="cls-2" d="M331.89,559.59a18.85,18.85,0,1,1-.51,37.69,18.85,18.85,0,0,1,.51-37.69Z"/><path class="cls-2" d="M312.37,102a18.75,18.75,0,0,1-18.95-18.31,18.85,18.85,0,1,1,37.68-.16A18.6,18.6,0,0,1,312.37,102Z"/><path class="cls-2" d="M674.5,434.1a18.85,18.85,0,0,1,37.7.5,18.85,18.85,0,1,1-37.7-.5Z"/><path class="cls-3" d="M641.48,609.75a18.88,18.88,0,0,1-19.07-18.23,18.56,18.56,0,0,1,18.41-19.45,18.87,18.87,0,0,1,19.25,18.79A19.22,19.22,0,0,1,641.48,609.75Z"/><path class="cls-2" d="M223,689.69a18.86,18.86,0,0,1-18.74-18.58A19.32,19.32,0,0,1,223.38,652a18.86,18.86,0,0,1,18.54,19.48A18.46,18.46,0,0,1,223,689.69Z"/><path class="cls-2" d="M411.12,714.66A18.67,18.67,0,0,1,392.49,696a18.85,18.85,0,1,1,18.63,18.62Z"/><path class="cls-3" d="M640.89,186.12a18.84,18.84,0,1,1-.7-37.68,18.84,18.84,0,0,1,.7,37.68Z"/><path class="cls-2" d="M125.72,463.68A18.45,18.45,0,0,1,144,444.84a18.87,18.87,0,0,1,19.39,18.63,19.32,19.32,0,0,1-19.18,19A18.84,18.84,0,0,1,125.72,463.68Z"/><path class="cls-2" d="M225.92,328.68a18.66,18.66,0,0,1,18.68,19.26,18.91,18.91,0,0,1-18.89,18.45A19.16,19.16,0,0,1,206.91,347,18.94,18.94,0,0,1,225.92,328.68Z"/><path class="cls-3" d="M570,311.08a18.84,18.84,0,0,1,0-37.68,18.84,18.84,0,1,1,0,37.68Z"/><path class="cls-3" d="M102.25,326.49a18.63,18.63,0,0,1-18.5,18.74,18.84,18.84,0,1,1,.15-37.67A18.73,18.73,0,0,1,102.25,326.49Z"/><path class="cls-2" d="M260.09,456.26a18.85,18.85,0,1,1-18.93,18.33A18.9,18.9,0,0,1,260.09,456.26Z"/><path class="cls-3" d="M440.25,482.26A18.65,18.65,0,0,1,421.73,501a18.85,18.85,0,1,1,.26-37.69A18.72,18.72,0,0,1,440.25,482.26Z"/><path class="cls-3" d="M209.86,178.08a18.62,18.62,0,0,1-18.66,18.55A18.84,18.84,0,1,1,191,159,18.74,18.74,0,0,1,209.86,178.08Z"/><path class="cls-2" d="M560.5,167.39A18.55,18.55,0,0,1,541.71,149a18.77,18.77,0,0,1,18.7-19.28,19.19,19.19,0,0,1,19,19.2A18.9,18.9,0,0,1,560.5,167.39Z"/><path class="cls-2" d="M119.17,270.69a18.59,18.59,0,0,1-18.92-18.27A18.9,18.9,0,0,1,118.86,233a19.15,19.15,0,0,1,19.06,19.1A18.82,18.82,0,0,1,119.17,270.69Z"/><path class="cls-2" d="M112.05,405.77a18.64,18.64,0,0,1-18.77,18.46,18.85,18.85,0,1,1,18.77-18.46Z"/><path class="cls-2" d="M404.93,96.47c0,10.35-9,19.15-19.3,18.91a18.86,18.86,0,0,1-18.39-19,18.48,18.48,0,0,1,19.14-18.71A18.84,18.84,0,0,1,404.93,96.47Z"/><path class="cls-2" d="M334.5,718.27a18.85,18.85,0,0,1-37.7-.41,18.85,18.85,0,1,1,37.7.41Z"/><path class="cls-3" d="M578.2,472.75a18.84,18.84,0,0,1-37.68.34,18.84,18.84,0,1,1,37.68-.34Z"/><path class="cls-3" d="M188.75,605.57a19.05,19.05,0,0,1-18.93-19.17,18.85,18.85,0,0,1,37.69.54A19,19,0,0,1,188.75,605.57Z"/><path class="cls-2" d="M564.51,636.35a18.85,18.85,0,1,1,18.69-18.73A19,19,0,0,1,564.51,636.35Z"/><path class="cls-4" d="M341.68,554.85c-3-1.38-2.45-3.67-1.62-5.94Q345,535.53,350,522.19q19.67-52.76,39.34-105.5c.48-1.3.85-2.66,1.42-3.92.83-1.85,1.51-4.54,4.22-3.52,3.2,1.21.88,3.52.25,5.21Q370,482.23,344.74,549.93C344.09,551.67,344.35,554.28,341.68,554.85Z"/><path class="cls-4" d="M429,373.69c-1.86.26-3-.22-3.42-1.39-1.13-2.8,1.61-2.95,3-3.72,15.34-8.68,30.74-17.24,46.12-25.85q33.67-18.86,67.39-37.67c1.68-.93,3.9-3.84,5.67-.17,1.47,3.07-1.72,3.31-3.28,4.19q-55.75,31.41-111.59,62.68C431.43,372.55,429.94,373.21,429,373.69Z"/><path class="cls-4" d="M251.73,350.57c12.14,2.52,22.56,4.62,33,6.85q44.38,9.52,88.76,19.15c2.08.45,5.44-.3,4.9,3.27-.6,4-3.53,1.62-5.48,1.21q-58.33-12.21-116.66-24.53c-1.13-.24-2.24-.59-3.38-.8-1.57-.27-2.67-1-2.32-2.74A6,6,0,0,1,251.73,350.57Z"/><path class="cls-4" d="M537.33,459.39c-1.7,4-4.17,1.55-6.13.47-11.57-6.38-23.08-12.89-34.59-19.37l-64.82-36.55a4.9,4.9,0,0,1-1.22-.66c-1.61-1.87-6.66-1.87-4.74-5.35s5,.08,7.06,1.22Q483.61,427.44,534.17,456C535.55,456.79,537.22,457.3,537.33,459.39Z"/><path class="cls-4" d="M336.25,249.8a10.43,10.43,0,0,1,1.74,1.6,23.58,23.58,0,0,1,1.64,3.06q25.83,50.85,51.58,101.76c.91,1.8,4.39,4.46.57,6.17-3.29,1.47-3.92-2.39-5-4.47Q361.36,308,336.06,258.08a28,28,0,0,1-2.13-5.11C333.51,251.5,334.1,250.23,336.25,249.8Z"/><path class="cls-4" d="M323,198.1c.79,2.69.34,3.83-1.51,3.94-2.12.13-2.74-1.19-2.89-3.07-.39-4.84-.95-9.67-1.32-14.52q-2.73-35.31-5.37-70.64c-.15-2-.95-4.6,2.17-4.93s2.89,2.24,3,4.32c1.43,20.8,2.51,41.63,4.48,62.38C322.29,183.43,322.35,191.31,323,198.1Z"/><path class="cls-4" d="M222.79,587.43a10.65,10.65,0,0,1-1.76,0c-2.27-.82-6.62,2-6.58-2.34,0-3.21,4.1-2.89,6.8-3,21-1,42.05-1.87,63.05-3.07,6-.35,11.93-1.49,18-1.22,1.35.06,3-.19,3.37,1.62.48,2.37-1.48,2.55-3,2.86a41.37,41.37,0,0,1-6.14.92q-31.53,1.56-63.06,3C229.49,586.33,225.75,588.19,222.79,587.43Z"/><path class="cls-4" d="M119.72,396.2c-1.72.18-3.18-.15-3.31-1.89-.15-2.08,1.82-2.49,3.24-3.11q16.82-7.44,33.69-14.79c14.63-6.38,29.26-12.77,44-19,1.42-.6,3.64-2.61,4.87-.21,1.32,2.57-1.14,3.61-3.06,4.46q-38.79,17-77.6,33.92A18.2,18.2,0,0,1,119.72,396.2Z"/><path class="cls-4" d="M198.67,345.83c-18.22-2.62-34.69-5-51.15-7.38-11.2-1.63-22.38-3.38-33.58-5-2.22-.33-5.29.17-4.62-3.42.57-3.07,3.12-1.78,5.11-1.48q40.78,6,81.6,12c2.31.34,5.06.26,4.74,3.61A1.72,1.72,0,0,1,198.67,345.83Z"/><path class="cls-4" d="M575.44,492.74c1.41,1.68,2.68,3,3.71,4.47q23.79,34.21,47.56,68.45c1,1.41,2.09,2.74.19,4.11-2.28,1.65-3.42-.35-4.43-1.77-5.36-7.55-10.64-15.16-15.92-22.77q-15.82-22.83-31.61-45.7c-1-1.45-2.62-2.9-1.66-5C573.61,493.87,574.56,493.46,575.44,492.74Z"/><path class="cls-4" d="M309.54,204.23a2.45,2.45,0,0,1-1.73,3c-2,.63-2.89-1.12-3.8-2.36q-7.86-10.64-15.59-21.35-16.08-22.31-32.08-44.64c-.68-.94-1.25-2-1.91-2.91-1.1-1.54-2.57-3.34-.65-4.89,2.64-2.13,3.7,1,4.68,2.31,8.92,12.15,17.69,24.42,26.46,36.68,7.43,10.38,14.8,20.79,22.21,31.17C307.93,202.35,308.86,203.38,309.54,204.23Z"/><path class="cls-4" d="M565.59,577.45c0,3.71,0,7.43,0,11.15,0,1.43-.28,2.89-2.2,2.83-1.45,0-1.83-1.15-2-2.38-.4-3.21-1.09-6.42-1.18-9.64-.62-23.65-1.12-47.31-1.66-71,0-1.4-.14-2.79-.12-4.18,0-2.13-2.91-5.57,1.76-5.78,3.6-.17,2.5,3.25,2.57,5.32q1.4,36.81,2.65,73.64Z"/><path class="cls-4" d="M375.58,123.4c-.25.63-.75,2.17-1.44,3.62q-17.31,36.08-34.67,72.12c-.5,1.05-1,2.12-1.55,3.11-.82,1.37-1.57,3.13-3.68,2.05s-1.42-2.57-.67-4.15c3.08-6.49,6.07-13,9.2-19.51q13.75-28.51,27.62-57c.76-1.56,1.16-3.81,3.58-3.7C375.31,120,375.85,121.12,375.58,123.4Z"/><path class="cls-4" d="M207.82,329.6c-.46.48-1,1.34-1.69,1.71-1.61.8-2.52-.62-3.52-1.5-7.49-6.58-15-13.14-22.45-19.77q-19.23-17.1-38.42-34.27c-.86-.77-1.71-1.58-2.5-2.42-1.07-1.16-2.71-2.31-1.27-4.11,1.77-2.23,3.21-.56,4.6.68q18.21,16.15,36.42,32.32,12.75,11.33,25.42,22.71C205.74,326.15,207.46,327.16,207.82,329.6Z"/><path class="cls-4" d="M583.57,270.36c-.51-.37-1.45-.73-1.87-1.42-1.05-1.73.36-3.11,1.1-4.44q8.82-15.78,17.77-31.47,11.16-19.64,22.34-39.25c1.21-2.12,2.25-5.68,5.38-3.71,2.77,1.75-.18,4.17-1.16,5.91q-19.75,35.13-39.75,70.13C586.5,267.67,586.07,269.65,583.57,270.36Z"/><path class="cls-4" d="M669.61,511.26c-1.24,3-3.54,2.48-5.82,1.68-8.76-3.07-17.51-6.14-26.24-9.28q-24.88-8.94-49.72-18c-1.89-.69-5.57-.45-4.43-3.83s3.89-1.29,5.94-.56q38.34,13.67,76.64,27.45C667.33,509.19,669.44,508.94,669.61,511.26Z"/><path class="cls-4" d="M569.73,254.7c.12,2.54.14,5.1.41,7.63.19,1.82,1.23,4-1.88,4-2.71,0-2.6-2.18-2.61-4,0-4.18-.8-8.3-1.11-12.42-1.71-22.85-3-45.72-4.45-68.58a23.61,23.61,0,0,1,0-2.79c.09-1.54-.45-3.6,1.8-3.92s2.14,1.77,2.56,3.29c2.41,8.6,1.2,17.5,2.18,26.25,1.86,16.77,2.19,33.71,3.16,50.57Z"/><path class="cls-4" d="M243.54,656.61c-.49-1.09-.9-1.93-1.25-2.79-.69-1.71.6-2.58,1.6-3.48,4.49-4,9-8.07,13.56-12q23.81-20.39,47.67-40.67a23.42,23.42,0,0,1,2.82-2c1.39-.86,3-2,4.32-.25s-.4,2.8-1.61,3.84q-19,16.37-38,32.75c-8.1,7-16.26,13.85-24.39,20.76C247.08,653.76,245.84,654.74,243.54,656.61Z"/><path class="cls-4" d="M161.21,443.31c-2.91-.65-3.6-2.06-2.32-4.13,2.06-3.36,4.2-6.68,6.47-9.9q20.22-28.75,40.6-57.4c1.17-1.63,1.84-6,5.21-3.48,3.07,2.32-.29,4.4-1.64,6.33Q188,405.55,166.47,436.36C164.77,438.78,162.9,441.09,161.21,443.31Z"/><path class="cls-4" d="M595.92,283.09a2.7,2.7,0,0,1-2.93-1.81c-.66-2.08,1.19-2.06,2.37-2.58,14.42-6.37,28.82-12.79,43.26-19.1q16.56-7.25,33.22-14.28c1.57-.67,3.69-2.32,4.86.07,1.31,2.69-1.13,3.44-3.11,4.3q-36.35,15.82-72.66,31.69C599.24,282.12,597.43,282.58,595.92,283.09Z"/><path class="cls-4" d="M347.09,214.34a2.37,2.37,0,0,1-2.89-1.69c-.55-1.71.81-2.49,1.95-3.25,8.11-5.41,16.2-10.83,24.34-16.18q21.22-13.93,42.53-27.78c2-1.3,4.3-4.12,6.36-.64,1.62,2.76-1.83,3.36-3.25,4.31q-32.72,21.79-65.6,43.33C349.37,213.2,348.1,213.79,347.09,214.34Z"/><path class="cls-4" d="M347.22,599.11c2.44.39,3.08,2.68,4.18,4.29,11.09,16.27,22.06,32.63,33.11,48.94,3.89,5.75,8,11.37,11.84,17.15,1.07,1.6,2.88,3.8,0,5.27-2.37,1.19-3.08-1.23-4.07-2.68q-22.87-33.62-45.77-67.24C345,602.63,344.26,600.72,347.22,599.11Z"/><path class="cls-4" d="M317.05,685.83q4.27-38.91,8.55-77.83c.22-2,.51-3.9,3.07-3.65s2.41,2.48,2.19,4.28q-3.78,31.64-7.66,63.26c-.67,5.51-1.16,11-1.92,16.52-.23,1.69,1.23,4.88-2.52,4.35-3-.43-2.53-2.7-1.86-4.85a10.84,10.84,0,0,0,.22-2.07Z"/><path class="cls-4" d="M298.91,217.72c-.41,3.47-2.5,2.36-4.49,1.61l-63.72-24.1c-4.33-1.64-8.68-3.25-13-5-1.26-.53-3.89-.32-3-2.8.94-2.64,3.29-2.13,5.32-1.38,7.18,2.63,14.33,5.34,21.49,8,17.34,6.54,34.7,13,52,19.67C295.6,214.5,298.15,214.92,298.91,217.72Z"/><path class="cls-4" d="M681.17,320.33c-.53,3.37-2.58,2.8-5.11,2.13-17.2-4.57-34.44-9-51.66-13.49-8.28-2.15-16.57-4.23-24.82-6.48-1.87-.51-4.83-.72-4.36-3.45.53-3.11,3.18-1.76,5.08-1.26q38.58,10,77.15,20.12C678.93,318.29,680.86,318,681.17,320.33Z"/><path class="cls-4" d="M587.48,467.33c-1.56.07-2.79.1-3.3-1.23-.65-1.7.35-2.68,1.8-3.15,3.08-1,6.21-1.86,9.32-2.76q33.38-9.7,66.78-19.36c2.17-.63,5.39-3.15,6.4.6.95,3.57-2.94,3.26-5.25,3.92l-72.81,21C589.31,466.66,588.23,467.07,587.48,467.33Z"/><path class="cls-4" d="M546.22,496.53c-.84,1.55-1.41,2.82-2.16,4q-20.88,32-41.82,63.93c-1,1.57-2.09,4.28-4.73,2.7-3-1.78-.45-3.58.57-5.14q21.13-32.24,42.39-64.39c1-1.54,1.65-4.3,4.54-3.16C545.62,494.68,545.85,495.86,546.22,496.53Z"/><path class="cls-4" d="M230.84,375.35c-.3-1.54.07-3,1.65-3.34,3.16-.59,3,2.3,3.49,4.06,3.83,14,7.52,28.1,11.27,42.15q3.75,14.05,7.56,28.1c.42,1.57,1.35,3.27-.92,4s-3.23-.55-3.8-2.71Q240.63,411.81,231,376C231,375.8,230.9,375.57,230.84,375.35Z"/><path class="cls-4" d="M350.86,560.93a9.81,9.81,0,0,1-2.21-1.68c-1.06-1.52.18-2.55,1.09-3.57,3.22-3.65,6.39-7.35,9.7-10.91q19.65-21.15,39.42-42.19c1.26-1.33,2.56-4,5-1.8,2.12,1.91.09,3.32-1.1,4.61Q378.5,531.72,354.15,558C353.23,559,352.12,559.8,350.86,560.93Z"/><path class="cls-4" d="M542.75,289.57c-23.63-4.41-45.66-8.37-67.59-12.82-2.83-.57-9,1.32-8.19-3.54.93-5.46,6.41-1.25,9.17-.81,20.73,3.33,41.33,7.4,62,11.26,1.36.25,2.68.7,4,1,2,.4,2.8,1.54,2.32,3.48S542.48,289.49,542.75,289.57Z"/></svg>